<svg xmlns="http://www.w3.org/2000/svg" viewBox="0 0 512 512">
  <!-- Six-pointed star snowflake, transparent background -->
  <g transform="translate(256,256)" stroke="#38bdf8" stroke-linecap="round" stroke-linejoin="round" fill="none">
    <line x1="0" y1="-170" x2="0" y2="170" stroke-width="18"/>
    <line x1="-147" y1="-85" x2="147" y2="85" stroke-width="18"/>
    <line x1="147" y1="-85" x2="-147" y2="85" stroke-width="18"/>
    <line x1="-45" y1="-105" x2="0" y2="-140" stroke-width="12"/>
    <line x1="45" y1="-105" x2="0" y2="-140" stroke-width="12"/>
    <line x1="-45" y1="105" x2="0" y2="140" stroke-width="12"/>
    <line x1="45" y1="105" x2="0" y2="140" stroke-width="12"/>
    <line x1="56" y1="-140" x2="91" y2="-110" stroke-width="12"/>
    <line x1="35" y1="-156" x2="91" y2="-110" stroke-width="12"/>
    <line x1="-56" y1="140" x2="-91" y2="110" stroke-width="12"/>
    <line x1="-35" y1="156" x2="-91" y2="110" stroke-width="12"/>
    <line x1="-56" y1="-140" x2="-91" y2="-110" stroke-width="12"/>
    <line x1="-35" y1="-156" x2="-91" y2="-110" stroke-width="12"/>
    <line x1="56" y1="140" x2="91" y2="110" stroke-width="12"/>
    <line x1="35" y1="156" x2="91" y2="110" stroke-width="12"/>
    <polygon points="0,-38 33,-19 33,19 0,38 -33,19 -33,-19"
             stroke-width="10" fill="rgba(56,189,248,0.15)"/>
    <circle cx="0" cy="0" r="14" fill="#38bdf8" stroke="none"/>
  </g>
</svg>
